<svg width="24" height="24" viewBox="0 0 24 24" fill="none" xmlns="http://www.w3.org/2000/svg">
<path d="M17.5801 10.2144C14.8441 4.326 13.4209 2.0892 8.95086 2.1828C7.35846 2.2152 7.74006 1.0284 6.52566 1.4784C5.31366 1.9284 6.35406 2.5872 5.11326 3.606C1.63086 6.4656 1.95126 9.1104 3.56646 15.414C4.24686 18.0696 1.92606 18.1992 2.84406 20.772C3.51486 22.6488 8.45886 23.4348 13.6741 21.5004C18.8905 19.5648 22.1773 15.7236 21.5065 13.8468C20.5885 11.2728 18.7333 12.6936 17.5801 10.2144ZM13.1089 19.914C8.45046 21.642 4.62246 20.6268 4.46046 20.1744C4.18206 19.3944 5.96406 16.7952 11.2897 14.8188C16.6153 12.8424 19.5877 13.5756 19.8985 14.4456C20.0821 14.9604 17.7685 18.1848 13.1089 19.914ZM11.6113 15.7212C9.17646 16.6248 7.48446 17.658 6.38766 18.588C7.15926 19.2888 8.60406 19.4592 10.0429 18.9252C11.8753 18.2472 13.0021 16.686 12.5569 15.4404L12.5377 15.3972C12.2365 15.4956 11.9281 15.6024 11.6113 15.7212Z" fill="#6A8CAF"/>
</svg>
