<svg width="22" height="24" viewBox="0 0 22 24" fill="none" xmlns="http://www.w3.org/2000/svg">
<path d="M20.2765 20.6889L20.5558 17.7899C20.6139 17.3175 20.4867 16.8357 20.1984 16.4362C19.9101 16.0367 19.4809 15.7473 18.9923 15.6232C18.0258 15.3863 17.0872 15.0469 16.1943 14.6115C15.8421 14.4388 15.4484 14.3643 15.06 14.3967C14.6715 14.4292 14.3045 14.5673 14.0024 14.7946L12.5901 15.8704C10.1717 14.1961 8.25258 11.9458 7.03519 9.35674L8.44749 8.28104C8.74676 8.05038 8.96751 7.74079 9.0836 7.38893C9.19969 7.03708 9.20624 6.65772 9.10247 6.29581C8.84199 5.37872 8.69049 4.4398 8.65087 3.49698C8.62641 3.02451 8.42243 2.57119 8.07696 2.2215C7.73149 1.87181 7.2681 1.64962 6.77316 1.59634L3.71636 1.23846C3.43342 1.20559 3.14825 1.22895 2.87901 1.30706C2.60977 1.38517 2.36235 1.51631 2.15252 1.69214C1.94268 1.86796 1.77503 2.08462 1.66022 2.32832C1.54542 2.57202 1.48598 2.83742 1.48569 3.10761C1.53234 6.13362 2.32742 9.12923 3.80653 11.8517C5.14596 14.3697 7.04249 16.5935 9.36145 18.3653C11.8508 20.3026 14.7647 21.6712 17.869 22.3614C18.1493 22.4187 18.4372 22.4201 18.7143 22.3653C18.9915 22.3106 19.2517 22.201 19.4783 22.0435C19.705 21.8861 19.893 21.6842 20.0305 21.451C20.1679 21.2177 20.2517 20.9581 20.2765 20.6889Z" fill="#6A8CAF" stroke="#6A8CAF" stroke-width="2" stroke-linecap="round" stroke-linejoin="round"/>
</svg>
