<svg width="24" height="24" viewBox="0 0 24 24" fill="none" xmlns="http://www.w3.org/2000/svg">
<path d="M12 2.39999C14.3633 2.4001 16.6435 3.2718 18.4042 4.84824C20.1648 6.42468 21.2822 8.59509 21.5424 10.944C21.1451 10.8257 20.7297 10.7797 20.316 10.8084C20.0086 8.71033 18.9193 6.80607 17.2666 5.47757C15.6139 4.14906 13.52 3.49455 11.4049 3.64533C9.28985 3.7961 7.30997 4.74101 5.86243 6.29051C4.41488 7.84002 3.60672 9.87954 3.60004 12C3.5999 14.0679 4.36256 16.0632 5.74199 17.6039C7.12142 19.1445 9.02066 20.1221 11.076 20.3496L10.8684 21.1836C10.8396 21.2988 10.8204 21.414 10.8084 21.5268C8.38648 21.2211 6.17193 20.0042 4.61519 18.1238C3.05846 16.2434 2.27647 13.8406 2.42826 11.4042C2.58005 8.96774 3.65423 6.68059 5.43232 5.00794C7.2104 3.33529 9.55886 2.40275 12 2.39999ZM8.58604 14.9124C9.28727 15.618 10.1898 16.0891 11.1696 16.261C12.1495 16.4329 13.1585 16.2972 14.058 15.8724L12.4116 17.5188C11.5512 17.5788 10.688 17.4526 9.88082 17.1488C9.07361 16.845 8.34138 16.3708 7.73404 15.7584C7.62185 15.6454 7.55914 15.4925 7.55971 15.3333C7.56027 15.1741 7.62406 15.0216 7.73704 14.9094C7.85002 14.7972 8.00294 14.7345 8.16216 14.7351C8.32138 14.7356 8.47385 14.7994 8.58604 14.9124ZM15 8.99999C15.3183 8.99999 15.6235 9.12642 15.8486 9.35147C16.0736 9.57651 16.2 9.88173 16.2 10.2C16.2 10.5183 16.0736 10.8235 15.8486 11.0485C15.6235 11.2736 15.3183 11.4 15 11.4C14.6818 11.4 14.3766 11.2736 14.1515 11.0485C13.9265 10.8235 13.8 10.5183 13.8 10.2C13.8 9.88173 13.9265 9.57651 14.1515 9.35147C14.3766 9.12642 14.6818 8.99999 15 8.99999ZM9.00004 8.99999C9.3183 8.99999 9.62352 9.12642 9.84857 9.35147C10.0736 9.57651 10.2 9.88173 10.2 10.2C10.2 10.5183 10.0736 10.8235 9.84857 11.0485C9.62352 11.2736 9.3183 11.4 9.00004 11.4C8.68178 11.4 8.37655 11.2736 8.15151 11.0485C7.92647 10.8235 7.80004 10.5183 7.80004 10.2C7.80004 9.88173 7.92647 9.57651 8.15151 9.35147C8.37655 9.12642 8.68178 8.99999 9.00004 8.99999ZM13.176 18.4524L18.972 12.6564C19.1805 12.4481 19.428 12.2828 19.7003 12.1702C19.9727 12.0575 20.2646 11.9995 20.5593 11.9996C20.854 11.9997 21.1458 12.0579 21.4181 12.1708C21.6904 12.2837 21.9377 12.4491 22.146 12.6576C22.3544 12.8661 22.5196 13.1136 22.6323 13.3859C22.745 13.6582 22.8029 13.9501 22.8028 14.2448C22.8027 14.5396 22.7445 14.8314 22.6316 15.1037C22.5187 15.3759 22.3533 15.6233 22.1448 15.8316L16.3488 21.6264C16.0112 21.9642 15.5881 22.2039 15.1248 22.32L13.3272 22.7688C13.1485 22.8133 12.9613 22.8109 12.7838 22.7617C12.6062 22.7125 12.4445 22.6182 12.3141 22.488C12.1838 22.3578 12.0894 22.1961 12.04 22.0187C11.9907 21.8412 11.9881 21.654 12.0324 21.4752L12.4824 19.6776C12.5975 19.2139 12.8374 18.7906 13.176 18.4536V18.4524Z" fill="white"/>
</svg>
