<svg width="30" height="30" viewBox="0 0 30 30" fill="none" xmlns="http://www.w3.org/2000/svg">
<g clip-path="url(#clip0_564_8)">
<path d="M12.0375 21.9137C12.8025 22.6775 12.3012 23.9862 11.2225 24.0462C10.5202 24.0857 9.81745 23.9763 9.16041 23.7251C8.50336 23.4739 7.90685 23.0867 7.40999 22.5887C6.91244 22.0919 6.52551 21.4955 6.27454 20.8387C6.02358 20.1819 5.91426 19.4795 5.95374 18.7775C6.01124 17.745 7.20999 17.2425 7.98374 17.87L8.08624 17.9625L12.0375 21.9137ZM25.0887 4.91123C26.2887 6.11123 26.5062 7.92373 25.7387 9.34498L25.6262 9.53623L25.5962 9.58123C26.021 11.1053 26.0786 12.7084 25.7644 14.259C25.4503 15.8097 24.7732 17.2639 23.7887 18.5025L23.56 18.7812L23.3212 19.0537L20.73 21.6437L20.63 21.7837C20.0996 22.5554 19.8771 23.4976 20.0062 24.425L20.05 24.6762L20.1062 24.9075C20.4362 26.0975 19.04 26.9637 18.125 26.2212L18.0175 26.1237L3.87624 11.9825C2.96749 11.0737 3.85499 9.55123 5.09249 9.89373C5.61995 10.04 6.17302 10.069 6.71288 9.97872C7.25274 9.88846 7.7663 9.68111 8.21749 9.37123L8.36249 9.26373L10.9887 6.63873C12.1972 5.53866 13.6569 4.75153 15.2401 4.34621C16.8232 3.94089 18.4815 3.92974 20.07 4.31373L20.4175 4.40248L20.4637 4.37373C21.1174 3.96985 21.8793 3.7763 22.6465 3.81922C23.4137 3.86214 24.1492 4.13946 24.7537 4.61373L24.9287 4.75998L25.0887 4.91123Z" fill="#6A8CAF"/>
</g>
<defs>
<clipPath id="clip0_564_8">
<rect width="30" height="30" fill="white"/>
</clipPath>
</defs>
</svg>
