<svg width="34" height="34" viewBox="0 0 34 34" fill="none" xmlns="http://www.w3.org/2000/svg">
<path fill-rule="evenodd" clip-rule="evenodd" d="M9.00749 25.595C14.7117 24.7616 18.6392 24.8333 24.3508 25.6241C24.7645 25.6841 25.1424 25.8917 25.4149 26.2086C25.6874 26.5255 25.836 26.9304 25.8333 27.3483C25.8333 27.7483 25.6958 28.1366 25.4475 28.44C25.0147 28.9688 24.5712 29.4889 24.1175 30H26.3183C26.4567 29.835 26.5958 29.6666 26.7367 29.4958C27.231 28.8896 27.5006 28.1313 27.5 27.3491C27.5 25.6616 26.2683 24.2075 24.5792 23.9741C18.7325 23.165 14.6458 23.0875 8.76666 23.9466C7.06 24.1958 5.83333 25.6725 5.83333 27.3716C5.83333 28.1258 6.07916 28.8716 6.54499 29.4758C6.68249 29.6541 6.81833 29.8291 6.95333 30.0008H9.10083C8.67868 29.4954 8.26693 28.9814 7.86583 28.4591C7.62746 28.1465 7.49888 27.764 7.49999 27.3708C7.49999 26.4733 8.14499 25.7208 9.00749 25.595ZM16.6667 17.5C17.3233 17.5 17.9735 17.3707 18.5801 17.1194C19.1867 16.8681 19.7379 16.4998 20.2022 16.0355C20.6665 15.5712 21.0348 15.02 21.2861 14.4134C21.5373 13.8068 21.6667 13.1566 21.6667 12.5C21.6667 11.8434 21.5373 11.1932 21.2861 10.5866C21.0348 9.97993 20.6665 9.42874 20.2022 8.96445C19.7379 8.50015 19.1867 8.13186 18.5801 7.88058C17.9735 7.62931 17.3233 7.49998 16.6667 7.49998C15.3406 7.49998 14.0688 8.02676 13.1311 8.96445C12.1934 9.90213 11.6667 11.1739 11.6667 12.5C11.6667 13.8261 12.1934 15.0978 13.1311 16.0355C14.0688 16.9732 15.3406 17.5 16.6667 17.5ZM16.6667 19.1666C18.4348 19.1666 20.1305 18.4643 21.3807 17.214C22.6309 15.9638 23.3333 14.2681 23.3333 12.5C23.3333 10.7319 22.6309 9.03618 21.3807 7.78593C20.1305 6.53569 18.4348 5.83331 16.6667 5.83331C14.8986 5.83331 13.2029 6.53569 11.9526 7.78593C10.7024 9.03618 9.99999 10.7319 9.99999 12.5C9.99999 14.2681 10.7024 15.9638 11.9526 17.214C13.2029 18.4643 14.8986 19.1666 16.6667 19.1666Z" fill="#6A8CAF"/>
<path fill-rule="evenodd" clip-rule="evenodd" d="M16.6667 31.6667C24.9508 31.6667 31.6667 24.9508 31.6667 16.6667C31.6667 8.3825 24.9508 1.66667 16.6667 1.66667C8.3825 1.66667 1.66667 8.3825 1.66667 16.6667C1.66667 24.9508 8.3825 31.6667 16.6667 31.6667ZM16.6667 33.3333C25.8717 33.3333 33.3333 25.8717 33.3333 16.6667C33.3333 7.46167 25.8717 0 16.6667 0C7.46167 0 0 7.46167 0 16.6667C0 25.8717 7.46167 33.3333 16.6667 33.3333Z" fill="#6A8CAF"/>
</svg>
