<svg width="259" height="142" viewBox="0 0 259 142" fill="none" xmlns="http://www.w3.org/2000/svg">
<path d="M136.29 7.21C175.28 7.21 208.27 32.83 219.37 68.15C212.39 28.69 177.96 0 136.5 0C95.04 0 62.38 27.19 54.22 65.15C66.21 31.39 98.42 7.21 136.29 7.21Z" fill="#6A8CAF"/>
<path d="M0 107.47H5.24V89.97H20.59V85.84H5.23V72.99H21.85V68.8H0V107.47ZM29.14 85.15H28.9L28.72 79.7H24.08C24.26 82.28 24.32 85.09 24.32 88.36V107.47H29.56V92.67C29.56 91.81 29.68 91.01 29.8 90.32C30.52 86.53 33.17 83.84 36.9 83.84C37.62 83.84 38.16 83.9 38.71 84.01V79.25C38.23 79.14 37.81 79.08 37.21 79.08C33.66 79.08 30.47 81.43 29.14 85.16V85.15ZM95.37 92.15C95.37 87.04 92.84 79.07 83.33 79.07C74.84 79.07 69.66 85.67 69.66 94.04C69.66 102.41 75.02 108.04 83.99 108.04C88.63 108.04 91.82 107.12 93.68 106.32L92.78 102.71C90.79 103.51 88.51 104.14 84.71 104.14C79.41 104.14 74.84 101.33 74.71 94.5H95.18C95.24 93.98 95.36 93.18 95.36 92.15H95.37ZM74.78 90.89C75.2 87.39 77.55 82.69 82.91 82.69C88.87 82.69 90.32 87.68 90.26 90.89H74.79H74.78ZM54.37 79.07C45.88 79.07 40.7 85.67 40.7 94.04C40.7 102.41 46.06 108.04 55.03 108.04C59.67 108.04 62.86 107.12 64.72 106.32L63.82 102.71C61.83 103.51 59.55 104.14 55.75 104.14C50.45 104.14 45.88 101.33 45.75 94.5H66.22C66.28 93.98 66.4 93.18 66.4 92.15C66.4 87.04 63.87 79.07 54.36 79.07H54.37ZM45.82 90.89C46.24 87.39 48.59 82.69 53.95 82.69C59.91 82.69 61.36 87.68 61.3 90.89H45.83H45.82Z" fill="#6A8CAF"/>
<path d="M163.57 78.9699C155.5 78.9699 149.12 84.4199 149.12 93.7199C149.12 102.5 155.2 108.01 163.09 108.01C170.13 108.01 177.6 103.54 177.6 93.2699C177.6 84.7799 171.94 78.9799 163.57 78.9799V78.9699ZM163.33 104.21C158.15 104.21 154.48 99.6199 154.48 93.5399C154.48 88.2599 157.19 82.7499 163.45 82.7499C169.71 82.7499 172.18 88.7199 172.18 93.4199C172.18 99.6699 168.39 104.21 163.33 104.21ZM136.18 68.6999L128.95 87.3999C127.14 92.2799 125.7 96.5199 124.68 100.42H124.5C123.48 96.3999 122.09 92.1599 120.41 87.3999L113.49 68.6999H106.81L103.98 107.37H108.98L110.06 90.7899C110.42 84.9999 110.72 78.5099 110.84 73.6899H110.96C112.1 78.2799 113.73 83.2699 115.66 88.7199L122.22 107.14H126.19L133.36 88.3799C135.41 83.0399 137.09 78.2199 138.48 73.6899H138.66C138.6 78.5099 138.96 84.9899 139.26 90.3899L140.28 107.37H145.4L142.87 68.6999H136.19H136.18ZM235.76 78.9699C227.27 78.9699 222.09 85.5699 222.09 93.9399C222.09 102.31 227.45 107.94 236.42 107.94C241.06 107.94 244.25 107.02 246.11 106.22L245.21 102.61C243.22 103.41 240.93 104.04 237.14 104.04C231.84 104.04 227.26 101.23 227.14 94.3999H247.61C247.67 93.8799 247.79 93.0799 247.79 92.0499C247.79 86.9399 245.26 78.9699 235.75 78.9699H235.76ZM227.21 90.7899C227.63 87.2899 229.98 82.5899 235.34 82.5899C241.3 82.5899 242.75 87.5799 242.69 90.7899H227.22H227.21ZM253.16 66.6399V107.37H258.46V66.6399H253.16ZM209.75 91.2499C205.96 89.8699 204.21 88.8399 204.21 86.5499C204.21 84.4799 205.96 82.7599 209.09 82.7599C211.8 82.7599 213.91 83.6799 215.05 84.3699L216.37 80.6999C214.75 79.7799 212.16 78.9799 209.2 78.9799C202.94 78.9799 199.15 82.6499 199.15 87.1299C199.15 90.4599 201.62 93.2099 206.86 94.9899C210.77 96.3699 212.28 97.6899 212.28 100.1C212.28 102.51 210.47 104.23 206.62 104.23C203.97 104.23 201.2 103.2 199.64 102.22L198.32 106.06C200.37 107.21 203.32 107.95 206.51 107.95C213.43 107.95 217.41 104.51 217.41 99.6299C217.41 95.4999 214.82 93.0899 209.76 91.2499H209.75ZM186.69 85.0499H186.45L186.27 79.5999H181.63C181.81 82.1799 181.87 84.9899 181.87 88.2599V107.37H187.11V92.5699C187.11 91.7099 187.23 90.9099 187.35 90.2199C188.07 86.4299 190.72 83.7399 194.45 83.7399C195.17 83.7399 195.71 83.7999 196.26 83.9099V79.1499C195.78 79.0399 195.36 78.9799 194.75 78.9799C191.2 78.9799 188.01 81.3299 186.68 85.0599L186.69 85.0499Z" fill="#75B79E"/>
<path d="M127.39 29.22C126.78 29.68 126.22 30.14 125.68 30.59C125.83 30.53 125.96 30.48 126.07 30.43C126.07 30.43 126.1 30.41 126.12 30.39C126.18 30.35 126.29 30.26 126.44 30.15C126.7 29.96 127.15 29.69 127.77 29.63C127.89 29.53 128.05 29.41 128.27 29.28C128.67 29.05 129.07 28.97 129.41 28.97C129.45 28.97 129.51 28.97 129.59 28.97C129.6 28.97 129.62 28.97 129.63 28.97C129.73 28.97 129.83 28.98 129.9 28.99C130.12 28.84 130.46 28.67 130.9 28.62C131.03 28.52 131.24 28.36 131.5 28.22C131.8 28.06 131.99 27.97 132.04 27.94C132.04 27.94 132.06 27.92 132.08 27.9C132.6 27.48 133.17 27.42 133.53 27.41C133.76 27.41 134.01 27.44 134.25 27.52L134.31 27.54L134.38 27.57C134.38 27.57 134.49 27.61 134.58 27.66C134.61 27.67 134.64 27.69 134.67 27.71C134.77 27.72 134.88 27.73 134.91 27.73H135C136.85 26.64 138.88 25.9 141.05 25.47C141.05 25.47 133.66 24.48 127.38 29.22H127.39ZM122.76 36.44C122.67 36.06 122.57 35.6 122.57 35.05C122.57 34.74 122.6 34.4 122.7 34.06C122.75 33.86 122.74 33.85 122.75 33.74C122.75 33.68 122.75 33.57 122.75 33.42C122.75 33.41 122.75 33.39 122.75 33.38C120.89 35.36 119.58 37.21 118.46 38.8C118.46 38.8 120.56 40.49 122.87 39.11C122.85 39.01 122.81 38.93 122.81 38.82C122.81 38.81 122.81 38.78 122.81 38.63C122.83 38.37 122.85 38.31 122.85 38.28V38.27C122.85 38.27 122.85 38.26 122.85 38.25C122.85 38.19 122.85 38.14 122.85 38.1C122.85 37.77 122.93 37.5 123.03 37.26C122.9 36.98 122.81 36.7 122.77 36.47L122.76 36.44Z" fill="#75B79E"/>
<path d="M138.81 42.2699C138.3 41.5899 137.96 40.6699 137.96 39.6199C137.96 38.3299 138.48 36.8799 139.66 35.4899C140.45 34.5999 141.22 33.8099 141.94 33.0899C141.94 33.0899 141.93 33.0699 141.92 33.0599C141.5 32.7399 141.25 32.7099 141.08 32.3899C140.91 32.0699 140.81 31.6699 140.61 31.6699C140.41 31.6699 139.84 31.6399 139.62 31.3699C139.4 31.0999 139.37 30.5499 138.8 30.5499C138.23 30.5499 138.1 31.0499 137.66 31.0199C137.21 30.9899 137.44 30.6699 136.74 30.4999C136.05 30.3299 135.85 30.2799 135.77 29.9799C135.7 29.6799 135.25 29.2599 134.93 29.2599C134.61 29.2599 133.94 29.1799 133.91 29.0599C133.89 28.9399 133.34 28.8599 133.07 29.0799C132.8 29.2999 132.8 29.2499 132.25 29.5499C131.7 29.8499 131.66 30.1199 131.18 30.1199C130.7 30.1199 130.61 30.5199 130.24 30.5399C129.87 30.5599 129.45 30.3699 129.05 30.5899C128.65 30.8099 128.5 31.1799 128.03 31.1399C127.56 31.0899 127.19 31.5899 126.72 31.8099C126.25 32.0299 125.85 32.1299 125.58 32.3799C125.58 32.3799 125.51 32.6799 124.96 32.8299C124.41 32.9799 124.29 33.0299 124.29 33.3499C124.29 33.6699 124.34 33.9399 124.19 34.4699C124.04 34.9899 124.14 35.5599 124.26 36.0799C124.38 36.5999 124.46 36.8199 124.86 37.1999C124.86 37.1999 124.36 37.5999 124.39 38.1399C124.41 38.6899 124.24 38.6899 124.46 39.0299C124.68 39.3799 124.93 39.6999 124.98 40.3899C125.03 41.0799 124.93 41.2599 125.33 41.7499C125.73 42.2499 125.7 42.4399 126.42 42.4699C127.14 42.4999 127.04 42.4499 127.73 42.8199C128.42 43.1899 128.35 43.4899 129.14 43.5099C129.93 43.5299 130.98 43.4599 131.47 43.6299C131.97 43.7999 132.44 43.9499 133.48 43.9499C134.52 43.9499 134.4 43.6799 135.46 43.5999C136.53 43.5299 136.48 43.2799 137.35 43.1299C138.16 42.9899 138.27 42.9099 139.04 42.4999C138.96 42.4099 138.88 42.3299 138.81 42.2399V42.2699Z" fill="#D4BD94"/>
<path d="M137.36 39.5099C136.9 39.5799 137.04 39.5599 136.5 39.8199C136.17 39.9799 135.74 40.0099 135.49 40.0099C135.35 40.0099 135.27 40.0099 135.27 40.0099C135.19 40.0099 135.12 40.0599 135.11 40.1399C135.11 40.2199 135.16 40.2899 135.24 40.2999C135.24 40.2999 135.34 40.2999 135.49 40.2999C135.77 40.2999 136.23 40.2699 136.63 40.0799C137.24 39.7899 136.93 39.8799 137.41 39.7899C137.62 39.7599 137.8 39.7199 137.97 39.6699C137.97 39.6499 137.97 39.6299 137.97 39.5999C137.97 39.5199 137.97 39.4299 137.98 39.3499C137.8 39.4199 137.62 39.4499 137.36 39.4899V39.5099ZM135.57 41.5899C135.57 41.5899 135.61 41.5899 135.63 41.5799C135.63 41.5799 136.15 41.3399 136.82 41.2899C137.16 41.2699 137.3 41.1899 137.37 41.1099C137.42 41.0699 137.49 40.9999 137.98 40.9099C138.04 40.8999 138.09 40.8899 138.15 40.8799C138.12 40.7899 138.1 40.6899 138.08 40.5899C138.03 40.5899 137.99 40.5999 137.93 40.6099C137.43 40.6999 137.27 40.7899 137.17 40.8799C137.09 40.9399 137.15 40.9499 136.8 40.9799C136.08 41.0299 135.52 41.2899 135.51 41.2899C135.43 41.3199 135.4 41.4099 135.44 41.4899C135.46 41.5499 135.52 41.5799 135.58 41.5799L135.57 41.5899ZM139.59 34.9299C139.5 35.0199 139.33 35.0499 139.11 35.0499C138.96 35.0499 138.79 35.0399 138.62 35.0399C138.43 35.0399 138.24 35.0499 138.05 35.1199C137.86 35.1899 137.73 35.2699 137.65 35.3199C137.56 35.3799 137.53 35.3899 137.53 35.3899C137.53 35.3899 137.51 35.3899 137.43 35.3199C137.15 35.0699 136.77 35.0599 136.64 35.0599C136.61 35.0599 136.6 35.0599 136.59 35.0599C136.51 35.0599 136.45 35.1399 136.46 35.2199C136.46 35.2999 136.54 35.3599 136.62 35.3599C136.62 35.3599 136.62 35.3599 136.64 35.3599C136.74 35.3599 137.05 35.3799 137.23 35.5499C137.32 35.6299 137.41 35.6899 137.52 35.6999C137.77 35.6699 137.8 35.5299 138.15 35.4099C138.28 35.3599 138.44 35.3499 138.61 35.3499C138.77 35.3499 138.94 35.3599 139.1 35.3599C139.34 35.3599 139.59 35.3399 139.78 35.1599C140.09 34.8799 140.12 34.7899 140.36 34.7199C140.45 34.6199 140.54 34.5299 140.63 34.4299C140.6 34.3999 140.55 34.3699 140.5 34.3799C140 34.4499 139.9 34.6399 139.58 34.9399L139.59 34.9299ZM142.13 32.8999C142.13 32.8999 142.1 32.8599 142.08 32.8499C141.6 32.4999 141.41 32.4799 141.31 32.2599C141.23 32.1199 141.17 31.9399 141.09 31.7899C141.01 31.6499 140.91 31.4299 140.62 31.4099C140.44 31.4299 139.9 31.3499 139.83 31.2099C139.76 31.1399 139.7 30.9399 139.57 30.7299C139.45 30.5199 139.19 30.2899 138.81 30.2999C138.45 30.2999 138.2 30.4599 138.05 30.5899C137.88 30.7199 137.8 30.7699 137.7 30.7699H137.67C137.53 30.7399 137.62 30.7799 137.5 30.6599C137.4 30.5299 137.2 30.3499 136.81 30.2599C136.46 30.1799 136.25 30.1199 136.15 30.0599C136.05 29.9999 136.07 30.0199 136.04 29.9199C135.89 29.4799 135.47 29.0499 134.95 29.0099C134.81 29.0099 134.57 28.9899 134.37 28.9599C134.27 28.9499 134.19 28.9199 134.14 28.9099C134.07 28.7899 133.97 28.7699 133.9 28.7399C133.8 28.7099 133.69 28.6899 133.57 28.6899C133.37 28.6899 133.13 28.7299 132.93 28.8899C132.69 29.0899 132.73 29.0199 132.15 29.3299C131.85 29.4899 131.68 29.6599 131.56 29.7499C131.43 29.8399 131.4 29.8699 131.21 29.8699C130.9 29.8699 130.68 30.0199 130.54 30.1299C130.4 30.2399 130.34 30.2899 130.25 30.2999H130.2C130.03 30.2999 129.8 30.2399 129.52 30.2399C129.34 30.2399 129.14 30.2699 128.95 30.3799C128.5 30.6599 128.37 30.9199 128.14 30.8999C128.12 30.8999 128.1 30.8999 128.07 30.8999C128.05 30.8999 128.02 30.8999 127.99 30.8999C127.36 30.9299 127.01 31.4399 126.63 31.5999C126.19 31.8099 125.78 31.9099 125.43 32.2099L125.37 32.2599L125.35 32.3299C125.35 32.3299 125.26 32.4999 124.91 32.5999C124.63 32.6799 124.45 32.7199 124.29 32.8299C124.11 32.9499 124.04 33.1799 124.05 33.3699C124.05 33.5099 124.05 33.6299 124.05 33.7499C124.05 33.9299 124.04 34.1199 123.95 34.4099C123.89 34.6199 123.87 34.8399 123.87 35.0499C123.87 35.4299 123.95 35.8099 124.03 36.1499C124.13 36.5799 124.24 36.8899 124.52 37.2099C124.36 37.3899 124.15 37.6899 124.14 38.1099C124.14 38.1199 124.14 38.1399 124.14 38.1699C124.14 38.1999 124.14 38.2299 124.14 38.2599C124.14 38.4799 124.1 38.5499 124.1 38.7399C124.1 38.8799 124.16 39.0299 124.26 39.1899C124.49 39.5499 124.69 39.7899 124.74 40.4299C124.78 41.0599 124.7 41.3899 125.14 41.9399C125.33 42.1699 125.41 42.3499 125.6 42.5099C125.79 42.6799 126.05 42.7399 126.43 42.7599C127.19 42.7999 126.91 42.7099 127.63 43.0799C127.95 43.2499 128.07 43.3899 128.27 43.5399C128.47 43.6899 128.74 43.7999 129.16 43.8099C129.31 43.8099 129.47 43.8099 129.63 43.8099C129.81 43.8099 129.98 43.8099 130.16 43.8099C130.68 43.8099 131.19 43.8299 131.42 43.9199C131.92 44.0999 132.44 44.2599 133.49 44.2599H133.52C134.06 44.2599 134.35 44.1799 134.58 44.0999C134.82 44.0199 135 43.9499 135.52 43.9099C136.07 43.8699 136.37 43.7799 136.61 43.6899C136.85 43.5899 137.02 43.5099 137.43 43.4399C138.27 43.2999 138.44 43.1899 139.25 42.7599C139.12 42.6399 139.01 42.4999 138.89 42.3599C138.16 42.7499 138.12 42.7899 137.34 42.9299C136.88 43.0099 136.64 43.1199 136.42 43.2099C136.21 43.2899 136 43.3599 135.48 43.3999C134.93 43.4399 134.64 43.5399 134.42 43.6099C134.19 43.6799 134.02 43.7399 133.52 43.7399C132.5 43.7399 132.09 43.5999 131.6 43.4299C131.22 43.2999 130.71 43.2999 130.17 43.2899C129.99 43.2899 129.82 43.2899 129.64 43.2899C129.48 43.2899 129.33 43.2899 129.19 43.2899C128.82 43.2699 128.73 43.2199 128.59 43.1199C128.45 43.0199 128.26 42.8199 127.89 42.6199C127.23 42.2499 127.14 42.2499 126.46 42.2399C126.12 42.2299 126.03 42.1799 125.95 42.1199C125.87 42.0599 125.77 41.8799 125.56 41.6199C125.24 41.1999 125.31 41.1599 125.28 40.5199C125.36 40.5199 125.45 40.4999 125.56 40.4999C125.77 40.4999 126.01 40.5299 126.22 40.6199C126.79 40.8699 126.86 40.8799 127.57 40.9799C128.06 41.0399 128.2 41.1399 128.45 41.1399C128.56 41.1399 128.66 41.1199 128.8 41.0699C128.88 41.0399 128.92 40.9599 128.89 40.8799C128.86 40.7999 128.78 40.7599 128.7 40.7899C128.58 40.8299 128.51 40.8399 128.44 40.8399C128.3 40.8399 128.11 40.7499 127.6 40.6799C126.87 40.5799 126.9 40.5899 126.32 40.3399C126.05 40.2299 125.78 40.1999 125.54 40.1999C125.42 40.1999 125.31 40.1999 125.22 40.2199C125.14 39.5799 124.88 39.2099 124.69 38.8999C124.61 38.7699 124.62 38.7599 124.61 38.7299C124.61 38.6899 124.65 38.5299 124.66 38.2499C124.66 38.2099 124.66 38.1799 124.66 38.1399C124.66 38.1299 124.66 38.1199 124.66 38.1099C124.66 37.9299 124.75 37.7499 124.85 37.6199C124.86 37.6099 124.87 37.5999 124.88 37.5899C125.16 37.9199 125.49 38.3699 126.25 38.5799C126.81 38.7299 127.09 38.7899 127.43 38.7899C127.59 38.7899 127.76 38.7799 127.97 38.7599C128.41 38.7199 128.57 38.6299 128.67 38.6399C128.75 38.6399 128.89 38.6599 129.2 38.7899C129.8 39.0299 130.23 39.1399 130.66 39.1399C130.81 39.1399 130.96 39.1299 131.12 39.1099C131.33 39.0799 131.46 39.0399 131.54 39.0099C131.63 38.9799 131.6 38.9899 131.64 38.9799C131.68 38.9799 131.77 38.9899 131.96 39.0299C132.61 39.1599 132.9 39.1299 133.63 39.1799C133.89 39.1999 133.98 39.2499 134.12 39.3199C134.25 39.3899 134.45 39.4899 134.74 39.4899C134.74 39.4899 134.75 39.4899 134.76 39.4899C134.91 39.4899 135.09 39.4699 135.31 39.4199C135.82 39.3099 136.15 39.1299 136.39 38.9899C136.64 38.8499 136.79 38.7799 137.04 38.7699C137.08 38.7699 137.12 38.7699 137.16 38.7699C137.24 38.7699 137.3 38.7799 137.37 38.7799C137.67 38.7799 137.89 38.6999 138.1 38.6099C138.14 38.3899 138.21 38.1699 138.28 37.9399C137.96 38.1099 137.74 38.2699 137.37 38.2599C137.32 38.2599 137.27 38.2599 137.22 38.2599C137.16 38.2599 137.1 38.2499 137.05 38.2499C136.67 38.2499 136.4 38.3899 136.15 38.5299C135.9 38.6699 135.64 38.8099 135.2 38.9099C135 38.9499 134.86 38.9699 134.76 38.9699C134.56 38.9699 134.5 38.9299 134.36 38.8599C134.22 38.7799 134 38.6799 133.67 38.6599C132.91 38.6099 132.66 38.6399 132.07 38.5199C131.87 38.4799 131.76 38.4599 131.65 38.4599H131.64C131.52 38.4599 131.42 38.4999 131.37 38.5199C131.31 38.5399 131.25 38.5599 131.07 38.5899C130.93 38.6099 130.8 38.6199 130.68 38.6199C130.33 38.6199 129.99 38.5399 129.41 38.3099C129.08 38.1799 128.88 38.1199 128.69 38.1199C128.66 38.1199 128.65 38.1199 128.63 38.1199C128.68 38.0899 128.72 38.0499 128.77 38.0299C129.16 37.7999 129.22 37.8799 129.73 37.8299C130.19 37.7799 130.46 37.7699 131.01 37.4099C131.16 37.3099 131.38 37.2699 131.61 37.2699C132.03 37.2699 132.44 37.3999 132.45 37.3999C132.53 37.4199 132.61 37.3799 132.64 37.2999C132.66 37.2199 132.62 37.1399 132.54 37.1099C132.54 37.1099 132.1 36.9699 131.62 36.9699C131.36 36.9699 131.09 37.0099 130.86 37.1499C130.32 37.4899 130.19 37.4699 129.71 37.5199C129.28 37.5699 129.08 37.4999 128.63 37.7599C128.3 37.9599 128.17 38.1399 127.86 38.2299C127.7 38.2399 127.57 38.2499 127.46 38.2499C127.18 38.2499 126.97 38.2099 126.41 38.0599C125.69 37.8599 125.53 37.4399 125.08 36.9999C124.72 36.6499 124.69 36.5399 124.56 36.0099C124.48 35.6799 124.42 35.3399 124.42 35.0299C124.42 34.8499 124.44 34.6899 124.48 34.5299C124.49 34.4799 124.5 34.4399 124.51 34.3999C124.64 34.4599 124.82 34.5199 125.09 34.5799C125.48 34.6699 125.47 34.6999 125.57 34.7899C125.68 34.8899 125.85 34.9899 126.39 35.0999C127.46 35.3299 127.71 35.2999 127.98 35.3499C127.98 35.3499 128 35.3499 128.01 35.3499C128.08 35.3499 128.14 35.2999 128.16 35.2299C128.17 35.1499 128.12 35.0699 128.04 35.0599C127.72 35.0099 127.52 35.0399 126.46 34.8099C125.93 34.6999 125.85 34.6299 125.78 34.5699C125.7 34.4899 125.57 34.3699 125.17 34.2899C124.85 34.2199 124.68 34.1499 124.58 34.0999C124.6 33.9599 124.61 33.8399 124.61 33.7299C124.61 33.5899 124.61 33.4699 124.61 33.3499C124.61 33.2099 124.61 33.2599 124.63 33.2299C124.66 33.1999 124.82 33.1499 125.09 33.0699C125.58 32.9399 125.79 32.6699 125.86 32.5299C126.07 32.3599 126.43 32.2499 126.9 32.0399C127.42 31.7699 127.78 31.3599 128.04 31.3899C128.04 31.3899 128.06 31.3899 128.07 31.3899C128.11 31.3899 128.15 31.3899 128.18 31.3899C128.77 31.3699 128.95 30.9399 129.24 30.8099C129.34 30.7499 129.44 30.7399 129.56 30.7299C129.75 30.7299 129.97 30.7899 130.24 30.7899H130.32C130.61 30.7699 130.78 30.5999 130.9 30.5099C131.03 30.4099 131.09 30.3699 131.25 30.3599C131.54 30.3599 131.76 30.2599 131.91 30.1299C132.07 30.0099 132.19 29.8899 132.44 29.7499C132.96 29.4699 133 29.4999 133.3 29.2499C133.35 29.1999 133.49 29.1599 133.61 29.1599C133.68 29.1599 133.74 29.1699 133.77 29.1799C133.85 29.3099 133.95 29.3099 134.01 29.3499C134.29 29.4399 134.71 29.4699 134.99 29.4799C135.11 29.4499 135.58 29.8499 135.58 29.9999C135.62 30.1999 135.77 30.3899 135.97 30.4799C136.16 30.5699 136.39 30.6299 136.74 30.7099C137.05 30.7999 137.08 30.8599 137.16 30.9399C137.22 31.0299 137.42 31.2399 137.71 31.2399C137.73 31.2399 137.74 31.2399 137.76 31.2399C138.08 31.2399 138.28 31.0599 138.42 30.9499C138.57 30.8399 138.67 30.7699 138.87 30.7699C139.07 30.7799 139.1 30.8299 139.19 30.9499C139.28 31.0799 139.33 31.2899 139.49 31.4899C139.84 31.8699 140.39 31.8699 140.64 31.8799C140.69 31.9399 140.8 32.2199 140.93 32.4699C141.18 32.8999 141.48 32.9299 141.84 33.2199C141.96 33.0999 142.08 32.9799 142.2 32.8599L142.13 32.8999ZM128.18 41.6599C128.18 41.7399 128.25 41.8099 128.33 41.8099C128.33 41.8099 129.03 41.8099 129.45 42.0599C129.63 42.1599 129.8 42.2099 129.96 42.2099C130.27 42.2099 130.5 42.0899 130.83 42.0599C131.33 42.0099 131.54 41.7799 131.98 41.7899C132.09 41.7899 132.22 41.7999 132.37 41.8399C132.63 41.8899 132.82 41.9099 132.97 41.9099C133.31 41.9099 133.43 41.7999 133.47 41.7499C133.51 41.6799 133.49 41.5899 133.42 41.5399C133.36 41.4999 133.28 41.5099 133.23 41.5699C133.23 41.5699 133.18 41.6099 132.97 41.6099C132.85 41.6099 132.67 41.5899 132.43 41.5399C132.26 41.4999 132.11 41.4899 131.98 41.4899C131.43 41.4899 131.18 41.7399 130.8 41.7599C130.41 41.7999 130.17 41.9099 129.96 41.9099C129.85 41.9099 129.74 41.8899 129.6 41.7999C129.07 41.4999 128.35 41.5099 128.33 41.5099C128.25 41.5099 128.18 41.5799 128.18 41.6599ZM130.98 40.1999C131.06 40.1999 131.13 40.1299 131.13 40.0499C131.13 39.9699 131.06 39.8999 130.98 39.8999C130.53 39.8999 130.1 39.8999 129.61 39.9999C129.47 40.0299 129.31 40.0399 129.13 40.0399C128.76 40.0399 128.32 39.9799 127.85 39.8999C127.68 39.8699 127.53 39.8599 127.4 39.8599C126.99 39.8599 126.81 39.9899 126.79 40.0099C126.73 40.0599 126.72 40.1499 126.77 40.2199C126.82 40.2799 126.91 40.2899 126.98 40.2399C126.98 40.2399 126.98 40.2299 127.05 40.1999C127.12 40.1799 127.23 40.1499 127.4 40.1499C127.51 40.1499 127.64 40.1499 127.8 40.1899C128.27 40.2699 128.73 40.3299 129.13 40.3299C129.32 40.3299 129.5 40.3199 129.67 40.2799C130.13 40.1799 130.53 40.1799 130.98 40.1799V40.1999ZM135.81 32.7999C135.86 32.7399 135.85 32.6399 135.79 32.5899C135.59 32.4299 135.46 32.3599 135.3 32.3599C135.08 32.3599 134.98 32.4599 134.56 32.4599C134.22 32.4399 134.26 32.3899 134.19 32.2599C134.15 32.1199 134 31.8599 133.62 31.8599C133.59 31.8599 133.56 31.8599 133.54 31.8599C132.9 31.8599 132.76 32.2399 132.52 32.4799C132.39 32.5999 132.33 32.5999 132.2 32.6399C132.07 32.6699 131.89 32.7399 131.71 32.9599C131.56 33.1399 131.42 33.2199 131.33 33.2599C131.23 33.2999 131.19 33.2899 131.19 33.2999C131.11 33.2999 131.04 33.3699 131.04 33.4499C131.04 33.5299 131.11 33.5999 131.19 33.5999C131.25 33.5999 131.61 33.5599 131.94 33.1499C132.09 32.9699 132.16 32.9599 132.27 32.9299C132.38 32.8999 132.56 32.8699 132.73 32.6899C133.06 32.3599 133.03 32.1699 133.54 32.1599C133.56 32.1599 133.58 32.1599 133.6 32.1599C133.88 32.1899 133.82 32.2199 133.91 32.3799C133.96 32.5399 134.15 32.7799 134.56 32.7599C135.02 32.7599 135.22 32.6599 135.3 32.6599C135.35 32.6599 135.42 32.6799 135.6 32.8199C135.66 32.8699 135.76 32.8599 135.81 32.7999ZM130.14 32.7099C130.14 32.7099 129.88 32.7099 129.45 32.7599C128.95 32.8199 128.81 33.2099 128.8 33.2399C128.78 33.3199 128.82 33.3999 128.9 33.4199C128.91 33.4199 128.93 33.4199 128.94 33.4199C129 33.4199 129.06 33.3799 129.08 33.3199C129.08 33.3199 129.09 33.2699 129.15 33.2099C129.21 33.1499 129.3 33.0799 129.48 33.0499C129.89 32.9999 130.13 32.9999 130.13 32.9999C130.21 32.9999 130.28 32.9299 130.28 32.8499C130.28 32.7699 130.21 32.6999 130.13 32.6999L130.14 32.7099ZM135.18 35.5099C134.88 35.5099 134.53 35.6699 134.23 35.7999C134.19 35.8199 134.16 35.8199 134.12 35.8199C133.96 35.8199 133.69 35.6499 133.2 35.5399C133.11 35.5199 133.02 35.5099 132.95 35.5099C132.73 35.5099 132.59 35.5999 132.48 35.6699C132.37 35.7399 132.29 35.7999 132.1 35.8299C132.05 35.8299 132.01 35.8399 131.97 35.8399C131.65 35.8399 131.47 35.6399 131.24 35.3799C130.94 35.0599 130.47 34.9899 130.46 34.9899C130.38 34.9799 130.3 35.0299 130.29 35.1099C130.28 35.1899 130.33 35.2699 130.41 35.2799C130.41 35.2799 130.83 35.3599 131.02 35.5799C131.23 35.8199 131.5 36.1399 131.97 36.1399C132.03 36.1399 132.08 36.1399 132.14 36.1299C132.38 36.0899 132.53 35.9899 132.64 35.9199C132.75 35.8499 132.8 35.8099 132.94 35.8099C132.99 35.8099 133.05 35.8099 133.13 35.8299C133.57 35.9199 133.8 36.1099 134.11 36.1099C134.18 36.1099 134.26 36.0999 134.33 36.0699C134.63 35.9499 134.97 35.7999 135.17 35.8099C135.25 35.8099 135.32 35.7399 135.32 35.6599C135.32 35.5799 135.25 35.5099 135.17 35.5099H135.18Z" fill="#75B79E"/>
<path d="M163.78 14.2C163.57 14.26 163.35 14.32 163.14 14.38C157.8 15.85 144.11 14.68 139.44 15.22C134.77 15.76 133.97 15.89 130.36 18.82C126.75 21.75 121.71 25.12 119.36 27.4C117.01 29.68 111.84 35 111.84 35C113.13 37.53 116.81 36.8899 120.61 33.2799C122.04 31.9099 125.81 28.51 127.89 27.37C129.45 26.52 133.85 23.99 137.76 23.77C141.67 23.55 147.17 25.26 147.03 28.11C146.89 30.96 143.61 32.82 140.63 36.33C137.65 39.85 140.2 42.76 141.28 42.16C142.36 41.56 148.21 35.98 152.66 34.15C157.11 32.32 157.5 31.06 161.66 29.03C164.19 27.79 174.11 24.74 181.51 22.53C173.69 18.01 167.55 15.5 163.78 14.21V14.2Z" fill="#75B79E"/>
<path d="M70.3501 42.6699C70.3501 42.6699 75.2801 38.6399 81.5701 37.6099C87.3901 36.6599 92.1901 38.3099 94.9801 39.5299C97.7801 40.7599 97.9301 40.8099 100.49 39.7799C103.05 38.7499 110.6 35.1099 112.1 36.3299C113.59 37.5499 112.61 41.1999 113.85 42.0599C115.09 42.9199 116.91 41.2399 118.41 42.1499C119.9 43.0599 118.28 51.5199 121.01 53.4999C123.75 55.4799 128.51 49.5099 130.81 50.8299C133.1 52.1499 131.93 54.0999 134.87 55.6799C137.81 57.2599 143.55 59.7699 140.15 64.5999C136.75 69.4299 130.75 73.4299 131.06 78.2999C131.06 78.2999 129.56 76.2099 131.81 72.0599C134.09 67.8599 141.5 64.0699 138.53 60.6199C136.37 58.1199 132.75 57.6199 131.52 54.8999C129.91 51.3499 126.24 54.4799 122.63 54.6899C119.72 54.8599 119.07 52.1299 118.34 49.5599C117.61 46.9999 117.14 43.8899 115.79 43.2199C114.44 42.5599 112.88 43.1899 112.05 41.1299C111.22 39.0699 111.03 37.7599 108.72 38.3399C107.24 38.7099 102.73 40.5599 99.4201 41.5899C97.5601 42.1699 96.3601 42.7299 95.6101 42.0599C92.3301 39.1199 81.9801 35.8999 70.3401 42.6599L70.3501 42.6699Z" fill="#6A8CAF"/>
<path d="M111.94 40.8198C111.94 40.8198 112.59 44.0598 110.15 44.5098C110.15 44.5098 113.3 45.0398 113.25 42.0598L111.93 40.8198H111.94Z" fill="#6A8CAF"/>
<path d="M52.2578 125.879L52.1055 125.609C51.8555 125.219 51.7305 124.93 51.7305 124.742C51.7305 124.367 51.9219 124.043 52.3047 123.77C52.6875 123.488 53.0352 123.348 53.3477 123.348C53.4883 123.348 53.668 123.359 53.8867 123.383C54.1055 123.414 54.2383 123.43 54.2852 123.43C56.5898 123.07 58.207 122.891 59.1367 122.891C60.8789 122.891 62.2539 123.305 63.2617 124.133C64.2773 124.953 64.7852 125.969 64.7852 127.18C64.7852 128.336 64.2852 129.434 63.2852 130.473C62.293 131.512 60.9609 132.363 59.2891 133.027C62.0703 135.277 64.1797 136.824 65.6172 137.668C66.125 137.973 66.3789 138.363 66.3789 138.84C66.3789 139.152 66.1992 139.465 65.8398 139.777C65.4883 140.09 65.1562 140.246 64.8438 140.246C64.3906 140.246 63.875 140.051 63.2969 139.66C62.7188 139.27 61.9023 138.656 60.8477 137.82C59.793 136.977 59.1836 136.473 59.0195 136.309C57.5352 135.066 56.4648 134.242 55.8086 133.836C54.9805 133.836 54.5664 133.426 54.5664 132.605C54.5664 132.223 54.75 131.895 55.1172 131.621C55.4844 131.34 55.9023 131.199 56.3711 131.199C56.5039 131.199 56.6484 131.219 56.8047 131.258C56.9531 131.305 57.0586 131.328 57.1211 131.328C57.6211 131.328 58.5469 130.91 59.8984 130.074C61.25 129.238 61.9258 128.273 61.9258 127.18C61.9258 126.633 61.6406 126.164 61.0703 125.773C60.5078 125.383 59.7891 125.188 58.9141 125.188C57.875 125.188 57.0352 125.25 56.3945 125.375C55.7617 125.5 55.4141 125.59 55.3516 125.645C55.2969 125.691 55.2266 125.812 55.1406 126.008C55.0625 126.203 54.8906 127.008 54.625 128.422C54.3672 129.828 54.1289 131.375 53.9102 133.062C53.6914 134.742 53.582 135.98 53.582 136.777C53.582 137.285 53.6211 137.742 53.6992 138.148C53.7695 138.555 53.8047 138.906 53.8047 139.203C53.8047 139.484 53.6367 139.785 53.3008 140.105C52.9727 140.434 52.6133 140.598 52.2227 140.598C51.1367 140.598 50.5938 139.848 50.5938 138.348C50.5938 137.129 50.7266 135.422 50.9922 133.227C51.2656 131.031 51.5859 129.102 51.9531 127.438C52.0078 127.172 52.0547 126.934 52.0938 126.723L52.2578 125.879ZM72.2617 128.375C72.0898 129.086 71.9805 129.652 71.9336 130.074C71.9336 130.301 71.8555 130.883 71.6992 131.82C71.4414 133.492 71.3125 134.633 71.3125 135.242C71.3125 136.273 71.375 137.289 71.5 138.289C71.5938 139.016 71.4453 139.547 71.0547 139.883C70.6641 140.211 70.2734 140.375 69.8828 140.375C69.3281 140.375 68.9336 140.137 68.6992 139.66C68.4648 139.176 68.3477 138.34 68.3477 137.152C68.3477 136.418 68.5312 134.668 68.8984 131.902L69.543 127.32C69.6758 126.648 69.7734 126.023 69.8359 125.445C69.9297 124.594 70.043 124.07 70.1758 123.875C70.3164 123.672 70.5625 123.461 70.9141 123.242C71.2656 123.016 71.5312 122.902 71.7109 122.902C72.1641 122.902 72.5078 123.086 72.7422 123.453C72.9844 123.82 73.1055 124.27 73.1055 124.801L72.2617 128.375ZM76.2812 138.113C76.3672 137.73 76.4336 137.043 76.4805 136.051C76.6602 133.332 76.9961 130.488 77.4883 127.52C77.6133 126.895 77.6758 126.418 77.6758 126.09C77.6758 125.949 77.6133 125.863 77.4883 125.832C76.6602 125.621 76.2461 125.258 76.2461 124.742C76.2461 124.367 76.4141 124.016 76.75 123.688C77.0938 123.352 77.457 123.184 77.8398 123.184L79.4219 123.23C80.1406 123.23 81.1289 123.18 82.3867 123.078C83.457 122.984 84.3281 122.938 85 122.938C87.1797 122.938 88.9414 123.551 90.2852 124.777C91.6367 125.996 92.3125 127.613 92.3125 129.629C92.3125 131.879 91.2734 133.914 89.1953 135.734C87.1172 137.547 84.6016 138.785 81.6484 139.449C80.8672 139.621 80.3164 139.77 79.9961 139.895C79.6758 140.02 79.3008 140.219 78.8711 140.492C78.3398 140.859 77.8164 141.043 77.3008 141.043C76.9023 141.043 76.5469 140.852 76.2344 140.469C75.9219 140.086 75.7656 139.773 75.7656 139.531C75.7656 139.367 75.8477 139.129 76.0117 138.816L76.2812 138.113ZM79.3398 137.527C79.7539 137.527 80.9375 137.227 82.8906 136.625C84.8516 136.016 86.4414 135.082 87.6602 133.824C88.8789 132.566 89.4883 131.133 89.4883 129.523C89.4883 128.234 89.0352 127.211 88.1289 126.453C87.2305 125.688 86.0508 125.305 84.5898 125.305C83.5898 125.305 82.3867 125.398 80.9805 125.586C80.8008 125.609 80.6562 125.625 80.5469 125.633C79.6953 130.852 79.2695 134.535 79.2695 136.684C79.2695 137.082 79.293 137.363 79.3398 137.527ZM108.051 125.469L104.441 125.656C103.184 125.727 102.102 125.84 101.195 125.996C100.289 126.145 99.7969 126.262 99.7188 126.348C99.6484 126.426 99.5977 126.664 99.5664 127.062C99.5273 127.453 99.3867 128.141 99.1445 129.125C98.9492 129.875 98.832 130.488 98.793 130.965C99.293 130.965 100.012 130.914 100.949 130.812C101.887 130.711 102.551 130.613 102.941 130.52C104.066 130.246 104.938 130.109 105.555 130.109C106.789 130.109 107.406 130.477 107.406 131.211C107.406 131.75 107.234 132.125 106.891 132.336C106.547 132.539 106.008 132.68 105.273 132.758C104.82 132.805 104.312 132.875 103.75 132.969C103.453 133.016 103.082 133.062 102.637 133.109C100.473 133.359 99.1953 133.555 98.8047 133.695H98.793C98.6602 133.734 98.5586 133.824 98.4883 133.965C98.4258 134.105 98.3086 134.688 98.1367 135.711C97.9648 136.727 97.8789 137.438 97.8789 137.844C97.918 138.133 98.0977 138.277 98.418 138.277C98.793 138.277 99.7773 138.176 101.371 137.973C102.973 137.762 103.965 137.617 104.348 137.539C105.418 137.312 106.117 137.199 106.445 137.199C107.438 137.34 107.934 137.801 107.934 138.582C107.934 138.941 107.816 139.215 107.582 139.402C106.801 139.754 105.719 139.973 104.336 140.059C103.266 140.121 101.969 140.254 100.445 140.457C99.0859 140.746 97.8047 140.891 96.6016 140.891C95.9688 140.891 95.5117 140.754 95.2305 140.48C94.9492 140.215 94.7812 139.797 94.7266 139.227L94.6914 138.84C94.6836 138.777 94.75 138.539 94.8906 138.125C95.2031 137.164 95.5859 135.027 96.0391 131.715C96.4922 128.402 96.7188 126.559 96.7188 126.184C96.7188 126.176 96.6953 126.145 96.6484 126.09C96.5938 126.043 96.5 125.895 96.3672 125.645C96.2422 125.387 96.1797 125.125 96.1797 124.859C96.1797 124.719 96.1953 124.605 96.2266 124.52C96.2578 124.355 96.4258 124.191 96.7305 124.027C97.0352 123.863 97.3203 123.781 97.5859 123.781C97.9531 123.781 98.3242 123.805 98.6992 123.852C99.3477 123.852 101.457 123.617 105.027 123.148C106.215 122.992 106.836 122.914 106.891 122.914L107.055 122.902C108.461 122.801 109.164 123.254 109.164 124.262C109.164 124.449 109.035 124.684 108.777 124.965C108.527 125.238 108.285 125.406 108.051 125.469ZM112.703 125.879L112.551 125.609C112.301 125.219 112.176 124.93 112.176 124.742C112.176 124.367 112.367 124.043 112.75 123.77C113.133 123.488 113.48 123.348 113.793 123.348C113.934 123.348 114.113 123.359 114.332 123.383C114.551 123.414 114.684 123.43 114.73 123.43C117.035 123.07 118.652 122.891 119.582 122.891C121.324 122.891 122.699 123.305 123.707 124.133C124.723 124.953 125.23 125.969 125.23 127.18C125.23 128.336 124.73 129.434 123.73 130.473C122.738 131.512 121.406 132.363 119.734 133.027C122.516 135.277 124.625 136.824 126.062 137.668C126.57 137.973 126.824 138.363 126.824 138.84C126.824 139.152 126.645 139.465 126.285 139.777C125.934 140.09 125.602 140.246 125.289 140.246C124.836 140.246 124.32 140.051 123.742 139.66C123.164 139.27 122.348 138.656 121.293 137.82C120.238 136.977 119.629 136.473 119.465 136.309C117.98 135.066 116.91 134.242 116.254 133.836C115.426 133.836 115.012 133.426 115.012 132.605C115.012 132.223 115.195 131.895 115.562 131.621C115.93 131.34 116.348 131.199 116.816 131.199C116.949 131.199 117.094 131.219 117.25 131.258C117.398 131.305 117.504 131.328 117.566 131.328C118.066 131.328 118.992 130.91 120.344 130.074C121.695 129.238 122.371 128.273 122.371 127.18C122.371 126.633 122.086 126.164 121.516 125.773C120.953 125.383 120.234 125.188 119.359 125.188C118.32 125.188 117.48 125.25 116.84 125.375C116.207 125.5 115.859 125.59 115.797 125.645C115.742 125.691 115.672 125.812 115.586 126.008C115.508 126.203 115.336 127.008 115.07 128.422C114.812 129.828 114.574 131.375 114.355 133.062C114.137 134.742 114.027 135.98 114.027 136.777C114.027 137.285 114.066 137.742 114.145 138.148C114.215 138.555 114.25 138.906 114.25 139.203C114.25 139.484 114.082 139.785 113.746 140.105C113.418 140.434 113.059 140.598 112.668 140.598C111.582 140.598 111.039 139.848 111.039 138.348C111.039 137.129 111.172 135.422 111.438 133.227C111.711 131.031 112.031 129.102 112.398 127.438C112.453 127.172 112.5 126.934 112.539 126.723L112.703 125.879ZM132.168 124.18C132.168 124.57 132.055 125.203 131.828 126.078V126.066C131.625 126.871 131.34 127.59 130.973 128.223V128.211C130.59 128.93 130.086 129.289 129.461 129.289C129.109 129.289 128.805 129.188 128.547 128.984C128.297 128.773 128.172 128.523 128.172 128.234C128.172 128.062 128.234 127.852 128.359 127.602C128.492 127.344 128.633 127.148 128.781 127.016C129.398 126.453 129.707 125.73 129.707 124.848C129.707 124.543 129.441 124.16 128.91 123.699C128.535 123.371 128.348 123.141 128.348 123.008L128.266 122.422C128.266 122.242 128.285 122.055 128.324 121.859C128.379 121.68 128.578 121.504 128.922 121.332C129.266 121.152 129.566 121.062 129.824 121.062C130.137 121.062 130.68 121.48 131.453 122.316L131.594 122.48C131.852 122.871 131.996 123.148 132.027 123.312C132.121 123.531 132.168 123.816 132.168 124.168V124.18ZM139.398 137.023C139.367 136.602 138.695 136.086 137.383 135.477C135.773 134.703 134.746 134.039 134.301 133.484C133.855 132.922 133.633 132.312 133.633 131.656C133.633 130.273 134.406 129.066 135.953 128.035C137.508 126.996 138.957 126.477 140.301 126.477C141.621 126.477 142.281 127.051 142.281 128.199C142.281 128.504 142.129 128.777 141.824 129.02C141.527 129.262 141.273 129.383 141.062 129.383C140.977 129.383 140.824 129.328 140.605 129.219C140.387 129.109 140.219 129.055 140.102 129.055C139.406 129.055 138.641 129.289 137.805 129.758C136.969 130.227 136.551 130.773 136.551 131.398C136.551 131.703 136.699 132 136.996 132.289C137.293 132.57 137.898 132.926 138.812 133.355C140.164 133.996 141.055 134.574 141.484 135.09C141.914 135.605 142.129 136.176 142.129 136.801C142.129 137.941 141.355 138.895 139.809 139.66C138.27 140.418 136.539 140.797 134.617 140.797C133.203 140.797 132.496 140.285 132.496 139.262C132.496 138.887 132.645 138.566 132.941 138.301C133.238 138.035 133.57 137.902 133.938 137.902C134.086 137.902 134.316 137.957 134.629 138.066C134.941 138.184 135.23 138.242 135.496 138.242C136.23 138.242 137 138.125 137.805 137.891C138.609 137.656 139.141 137.367 139.398 137.023ZM157.047 136.215C156.914 136.543 156.504 137.27 155.816 138.395C155.137 139.512 154.664 140.133 154.398 140.258C154.133 140.391 153.898 140.457 153.695 140.457C153.414 140.457 153.074 140.305 152.676 140C152.285 139.688 152.09 139.367 152.09 139.039C152.09 138.734 153.07 137.09 155.031 134.105C156.102 132.473 157.078 130.855 157.961 129.254C159.734 126.02 160.816 124.141 161.207 123.617C161.605 123.086 162.012 122.82 162.426 122.82C163.09 122.82 163.57 122.992 163.867 123.336C164.016 123.445 164.09 123.707 164.09 124.121C164.09 124.426 164.062 124.672 164.008 124.859C165.438 129.219 166.555 132.305 167.359 134.117C168.172 135.922 168.984 137.23 169.797 138.043C170.203 138.449 170.449 138.723 170.535 138.863C170.629 139.004 170.676 139.191 170.676 139.426C170.676 139.855 170.52 140.215 170.207 140.504C169.895 140.801 169.523 140.949 169.094 140.949C168.5 140.949 167.895 140.605 167.277 139.918C166.668 139.23 166.09 138.285 165.543 137.082C165.004 135.879 164.734 135.203 164.734 135.055C164.734 135.023 164.715 135.008 164.676 135.008C164.254 135.008 163.312 135.156 161.852 135.453C160.398 135.75 159.23 136.039 158.348 136.32C158.121 136.391 157.922 136.426 157.75 136.426C157.445 136.426 157.211 136.355 157.047 136.215ZM163.797 132.629C163.609 132.168 163.055 130.527 162.133 127.707C162.047 127.449 161.988 127.285 161.957 127.215L158.629 133.543C159.121 133.457 159.625 133.379 160.141 133.309C160.484 133.27 161.359 133.105 162.766 132.816C163.109 132.746 163.453 132.684 163.797 132.629ZM176.289 134.691C176.094 136.504 175.996 137.957 175.996 139.051C175.996 139.48 175.867 139.863 175.609 140.199C175.352 140.535 175 140.703 174.555 140.703C173.594 140.703 173.113 140.145 173.113 139.027C173.113 138.41 173.34 136.324 173.793 132.77C174.16 129.895 174.344 128.18 174.344 127.625C174.344 126.992 174.316 126.633 174.262 126.547C173.754 126.289 173.5 125.824 173.5 125.152C173.5 124.496 174.559 123.926 176.676 123.441C178.793 122.949 180.605 122.703 182.113 122.703C183.879 122.703 185.285 123.066 186.332 123.793C187.379 124.52 187.902 125.5 187.902 126.734C187.902 128.516 186.941 130.082 185.02 131.434C183.098 132.777 180.762 133.73 178.012 134.293C177.004 134.504 176.43 134.637 176.289 134.691ZM177.332 125.891L176.641 132.055C178.891 131.68 180.867 131.016 182.57 130.062C184.273 129.102 185.125 128.074 185.125 126.98C185.125 125.676 184.094 125.023 182.031 125.023C180.602 125.023 179.035 125.312 177.332 125.891ZM193.211 134.691C193.016 136.504 192.918 137.957 192.918 139.051C192.918 139.48 192.789 139.863 192.531 140.199C192.273 140.535 191.922 140.703 191.477 140.703C190.516 140.703 190.035 140.145 190.035 139.027C190.035 138.41 190.262 136.324 190.715 132.77C191.082 129.895 191.266 128.18 191.266 127.625C191.266 126.992 191.238 126.633 191.184 126.547C190.676 126.289 190.422 125.824 190.422 125.152C190.422 124.496 191.48 123.926 193.598 123.441C195.715 122.949 197.527 122.703 199.035 122.703C200.801 122.703 202.207 123.066 203.254 123.793C204.301 124.52 204.824 125.5 204.824 126.734C204.824 128.516 203.863 130.082 201.941 131.434C200.02 132.777 197.684 133.73 194.934 134.293C193.926 134.504 193.352 134.637 193.211 134.691ZM194.254 125.891L193.562 132.055C195.812 131.68 197.789 131.016 199.492 130.062C201.195 129.102 202.047 128.074 202.047 126.98C202.047 125.676 201.016 125.023 198.953 125.023C197.523 125.023 195.957 125.312 194.254 125.891Z" fill="#6A8CAF"/>
</svg>
