<svg width="24" height="24" viewBox="0 0 24 24" fill="none" xmlns="http://www.w3.org/2000/svg">
<path d="M5 20C4.45 20 3.979 19.8043 3.587 19.413C3.195 19.0217 2.99934 18.5507 3 18V4C3 3.45 3.196 2.979 3.588 2.587C3.98 2.195 4.45067 1.99934 5 2H19C19.55 2 20.021 2.196 20.413 2.588C20.805 2.98 21.0007 3.45067 21 4V9.675C20.5333 9.44167 20.0457 9.271 19.537 9.163C19.0283 9.055 18.516 9.00067 18 9C17.5167 9 17.0583 9.046 16.625 9.138C16.1917 9.23 15.7667 9.359 15.35 9.525C15.4 9.35834 15.4377 9.19167 15.463 9.025C15.4883 8.85834 15.5007 8.68333 15.5 8.5C15.5 7.53333 15.1583 6.70834 14.475 6.025C13.7917 5.34167 12.9667 5 12 5C11.0333 5 10.2083 5.34167 9.525 6.025C8.84167 6.70834 8.5 7.53333 8.5 8.5C8.5 9.46667 8.84167 10.2917 9.525 10.975C10.2083 11.6583 11.0333 12 12 12H12.25C12.0333 12.3 11.846 12.621 11.688 12.963C11.53 13.305 11.3923 13.659 11.275 14.025C10.0417 14.1083 8.89567 14.4 7.837 14.9C6.77834 15.4 5.83267 16.05 5 16.85V18H11.3C11.4167 18.3667 11.55 18.7167 11.7 19.05C11.85 19.3833 12.0333 19.7 12.25 20H5ZM17 21L16.7 19.5C16.5 19.4167 16.3123 19.3293 16.137 19.238C15.9617 19.1467 15.7827 19.034 15.6 18.9L14.15 19.35L13.15 17.65L14.3 16.65C14.2667 16.4167 14.25 16.2 14.25 16C14.25 15.8 14.2667 15.5833 14.3 15.35L13.15 14.35L14.15 12.65L15.6 13.1C15.7833 12.9667 15.9627 12.8543 16.138 12.763C16.3133 12.6717 16.5007 12.584 16.7 12.5L17 11H19L19.3 12.5C19.5 12.5833 19.6877 12.675 19.863 12.775C20.0383 12.875 20.2173 13 20.4 13.15L21.85 12.65L22.85 14.4L21.7 15.4C21.7333 15.6 21.75 15.8083 21.75 16.025C21.75 16.2417 21.7333 16.45 21.7 16.65L22.85 17.65L21.85 19.35L20.4 18.9C20.2167 19.0333 20.0377 19.146 19.863 19.238C19.6883 19.33 19.5007 19.4173 19.3 19.5L19 21H17ZM18 18C18.55 18 19.021 17.8043 19.413 17.413C19.805 17.0217 20.0007 16.5507 20 16C20 15.45 19.804 14.9793 19.412 14.588C19.02 14.1967 18.5493 14.0007 18 14C17.45 14 16.979 14.196 16.587 14.588C16.195 14.98 15.9993 15.4507 16 16C16 16.55 16.196 17.021 16.588 17.413C16.98 17.805 17.4507 18.0007 18 18Z" fill="#6A8CAF"/>
</svg>
