<svg width="24" height="24" viewBox="0 0 24 24" fill="none" xmlns="http://www.w3.org/2000/svg">
<path d="M11 8H17C17.2833 8 17.521 7.904 17.713 7.712C17.905 7.52 18.0007 7.28267 18 7C18 6.71667 17.904 6.479 17.712 6.287C17.52 6.095 17.2827 5.99934 17 6H11C10.7167 6 10.479 6.096 10.287 6.288C10.095 6.48 9.99934 6.71734 10 7C10 7.28334 10.096 7.521 10.288 7.713C10.48 7.905 10.7173 8.00067 11 8ZM11 11H17C17.2833 11 17.521 10.904 17.713 10.712C17.905 10.52 18.0007 10.2827 18 10C18 9.71667 17.904 9.479 17.712 9.287C17.52 9.095 17.2827 8.99934 17 9H11C10.7167 9 10.479 9.096 10.287 9.288C10.095 9.48 9.99934 9.71734 10 10C10 10.2833 10.096 10.521 10.288 10.713C10.48 10.905 10.7173 11.0007 11 11ZM11 14H14C14.2833 14 14.521 13.904 14.713 13.712C14.905 13.52 15.0007 13.2827 15 13C15 12.7167 14.904 12.479 14.712 12.287C14.52 12.095 14.2827 11.9993 14 12H11C10.7167 12 10.479 12.096 10.287 12.288C10.095 12.48 9.99934 12.7173 10 13C10 13.2833 10.096 13.521 10.288 13.713C10.48 13.905 10.7173 14.0007 11 14ZM7 8C7.28333 8 7.521 7.904 7.713 7.712C7.905 7.52 8.00067 7.28267 8 7C8 6.71667 7.904 6.479 7.712 6.287C7.52 6.095 7.28267 5.99934 7 6C6.71667 6 6.479 6.096 6.287 6.288C6.095 6.48 5.99933 6.71734 6 7C6 7.28334 6.096 7.521 6.288 7.713C6.48 7.905 6.71733 8.00067 7 8ZM7 11C7.28333 11 7.521 10.904 7.713 10.712C7.905 10.52 8.00067 10.2827 8 10C8 9.71667 7.904 9.479 7.712 9.287C7.52 9.095 7.28267 8.99934 7 9C6.71667 9 6.479 9.096 6.287 9.288C6.095 9.48 5.99933 9.71734 6 10C6 10.2833 6.096 10.521 6.288 10.713C6.48 10.905 6.71733 11.0007 7 11ZM7 14C7.28333 14 7.521 13.904 7.713 13.712C7.905 13.52 8.00067 13.2827 8 13C8 12.7167 7.904 12.479 7.712 12.287C7.52 12.095 7.28267 11.9993 7 12C6.71667 12 6.479 12.096 6.287 12.288C6.095 12.48 5.99933 12.7173 6 13C6 13.2833 6.096 13.521 6.288 13.713C6.48 13.905 6.71733 14.0007 7 14ZM2 19.575V4C2 3.45 2.196 2.979 2.588 2.587C2.98 2.195 3.45067 1.99934 4 2H20C20.55 2 21.021 2.196 21.413 2.588C21.805 2.98 22.0007 3.45067 22 4V16C22 16.55 21.804 17.021 21.412 17.413C21.02 17.805 20.5493 18.0007 20 18H6L3.7 20.3C3.38334 20.6167 3.02067 20.6877 2.612 20.513C2.20333 20.3383 1.99933 20.0257 2 19.575Z" fill="#6A8CAF"/>
</svg>
