<svg width="24" height="24" viewBox="0 0 24 24" fill="none" xmlns="http://www.w3.org/2000/svg">
<g clip-path="url(#clip0_462_59)">
<path d="M5 12C7.2 12 9 10.2 9 8C9 5.8 7.2 4 5 4C2.8 4 1 5.8 1 8C1 10.2 2.8 12 5 12ZM9 20V14.7C7.9 14.3 6.5 14 5 14C1.1 14 -2 15.8 -2 18V20H9ZM20 4H13C11.9 4 11 4.9 11 6V18C11 19.1 11.9 20 13 20H20C21.1 20 22 19.1 22 18V6C22 4.9 21.1 4 20 4ZM16 18H14V6H16V18Z" fill="#6A8CAF"/>
</g>
<defs>
<clipPath id="clip0_462_59">
<rect width="24" height="24" fill="white"/>
</clipPath>
</defs>
</svg>
